<svg id="Rodape_DNA360" xmlns="http://www.w3.org/2000/svg" xmlns:xlink="http://www.w3.org/1999/xlink" width="71.471" height="15.632" viewBox="0 0 71.471 15.632">
  <defs>
    <clipPath id="clip-path">
      <rect id="Retângulo_24" data-name="Retângulo 24" width="71.471" height="15.632" fill="#5d5d5d"/>
    </clipPath>
  </defs>
  <g id="Grupo_125" data-name="Grupo 125" clip-path="url(#clip-path)">
    <path id="Caminho_108" data-name="Caminho 108" d="M9.948.022H0V3.138H3.715A7.806,7.806,0,1,0,9.948.022m0,12.515a4.7,4.7,0,1,1,2.213-8.849l2.262-.369L13.94,5.354a4.7,4.7,0,0,1-3.992,7.182" transform="translate(0 -0.021)" fill="#5d5d5d"/>
    <path id="Caminho_109" data-name="Caminho 109" d="M546.438.053a1.557,1.557,0,1,1-1.1,1.9,1.557,1.557,0,0,1,1.1-1.9" transform="translate(-528.637 -0.001)" fill="#5d5d5d"/>
    <path id="Caminho_110" data-name="Caminho 110" d="M772.079,79.122V88.5H770.55l-.107-.913a2.408,2.408,0,0,1-2.134,1.059,3.246,3.246,0,0,1-3.41-3.461,3.168,3.168,0,0,1,3.37-3.461,2.735,2.735,0,0,1,2.173,1.059V79.122Zm-5.543,6.065a1.9,1.9,0,1,0,3.8,0,1.888,1.888,0,0,0-1.92-1.932,1.826,1.826,0,0,0-1.88,1.932" transform="translate(-741.552 -76.707)" fill="#5d5d5d"/>
    <path id="Caminho_111" data-name="Caminho 111" d="M1050.411,172.943v-3.461a1.577,1.577,0,0,0-1.6-1.77,1.74,1.74,0,0,0-1.691,1.853v3.382H1045.5v-6.633h1.462l.107.9a2.989,2.989,0,0,1,2.173-.992c1.557,0,2.805,1.166,2.805,3.248v3.477h-1.636Z" transform="translate(-1013.587 -161.148)" fill="#5d5d5d"/>
    <path id="Caminho_112" data-name="Caminho 112" d="M1300.01,164.576h1.569v6.618h-1.544l-.079-.968a2.52,2.52,0,0,1-2.146,1.169,3.489,3.489,0,0,1,.04-6.978,2.424,2.424,0,0,1,2.106,1.074Zm-3.974,3.3a1.9,1.9,0,0,0,1.96,2.012c2.576,0,2.576-4.014,0-4.014a1.889,1.889,0,0,0-1.96,2" transform="translate(-1254.89 -159.399)" fill="#5d5d5d"/>
    <path id="Caminho_113" data-name="Caminho 113" d="M1653.233,122.206a2.055,2.055,0,0,0,1.349-1.853c-.012-1.355-1.215-2.231-3.061-2.231-1.957,0-3.086.794-3.1,2.173v.131h.839V120.3c0-.931.763-1.4,2.268-1.4a2.621,2.621,0,0,1,1.88.614,1.174,1.174,0,0,1,.357.849c-.012.72-.806,1.486-2.259,1.486H1650.1v.769h1.447c1.542,0,2.347.794,2.347,1.575,0,.739-.614,1.529-2.338,1.529-1.114,0-2.4-.162-2.405-1.429v-.128h-.849v.128c0,2.036,2.268,2.253,3.241,2.253,1.935,0,3.187-.934,3.187-2.378a2.213,2.213,0,0,0-1.5-1.957" transform="translate(-1597.988 -114.516)" fill="#5d5d5d"/>
    <path id="Caminho_114" data-name="Caminho 114" d="M1896.275,121.17a3.077,3.077,0,0,0-2.418.888v-1.8c0-1,1.154-1.529,2.292-1.529,1.334,0,2.234.528,2.292,1.346l.009.119h.873l-.009-.137c-.1-1.294-1.34-2.131-3.162-2.131-1.517,0-3.153.73-3.153,2.335v3.477c0,1.923,1.758,2.607,3.266,2.607,1.569,0,3.242-.678,3.242-2.582s-1.743-2.588-3.232-2.588m2.372,2.582c0,1.621-1.822,1.746-2.384,1.746a2.914,2.914,0,0,1-1.972-.656,1.477,1.477,0,0,1-.421-1.1c.012-1.291,1.444-1.758,2.405-1.758s2.372.473,2.372,1.77" transform="translate(-1835.219 -114.323)" fill="#5d5d5d"/>
    <path id="Caminho_115" data-name="Caminho 115" d="M2136.671,118.222a3.088,3.088,0,0,0-3.171,3.254v1.9a3.088,3.088,0,0,0,3.171,3.254,3.079,3.079,0,0,0,3.177-3.254v-1.9a3.079,3.079,0,0,0-3.177-3.254m2.317,3.254v1.9a2.27,2.27,0,0,1-2.317,2.424,2.312,2.312,0,0,1-1.59-.6,2.4,2.4,0,0,1-.72-1.819v-1.9a2.394,2.394,0,0,1,.72-1.813,2.324,2.324,0,0,1,1.59-.6,2.262,2.262,0,0,1,2.317,2.414" transform="translate(-2068.378 -114.613)" fill="#5d5d5d"/>
  </g>
</svg>
